<svg width="114" height="51" viewBox="0 0 114 51" fill="none" xmlns="http://www.w3.org/2000/svg">
<g filter="url(#filter0_di_23_4)">
<mask id="path-1-outside-1_23_4" maskUnits="userSpaceOnUse" x="31" y="5" width="79" height="26" fill="black">
<rect fill="white" x="31" y="5" width="79" height="26"/>
<path d="M37.544 19.464L33.288 6.6H37.032L39.432 14.824H39.496L41.896 6.6H45.32L41.064 19.464V29H37.544V19.464ZM50.4257 29.32C48.7191 29.32 47.4177 28.84 46.5217 27.88C45.6257 26.8987 45.1777 25.5013 45.1777 23.688V6.6H48.6977V23.944C48.6977 24.712 48.8471 25.2667 49.1458 25.608C49.4658 25.9493 49.9138 26.12 50.4897 26.12C51.0657 26.12 51.5031 25.9493 51.8018 25.608C52.1217 25.2667 52.2817 24.712 52.2817 23.944V6.6H55.6737V23.688C55.6737 25.5013 55.2257 26.8987 54.3298 27.88C53.4338 28.84 52.1324 29.32 50.4257 29.32ZM56.0687 16.2H63.1087V19.4H56.0687V16.2ZM68.5978 29.32C66.8911 29.32 65.5898 28.84 64.6938 27.88C63.7978 26.8987 63.3498 25.5013 63.3498 23.688V11.912C63.3498 10.0987 63.7978 8.712 64.6938 7.752C65.5898 6.77067 66.8911 6.28 68.5978 6.28C70.3044 6.28 71.6058 6.77067 72.5018 7.752C73.3978 8.712 73.8458 10.0987 73.8458 11.912V13.832H70.5178V11.688C70.5178 10.216 69.9098 9.48 68.6938 9.48C67.4778 9.48 66.8698 10.216 66.8698 11.688V23.944C66.8698 25.3947 67.4778 26.12 68.6938 26.12C69.9098 26.12 70.5178 25.3947 70.5178 23.944V19.56H68.7578V16.36H73.8458V23.688C73.8458 25.5013 73.3978 26.8987 72.5018 27.88C71.6058 28.84 70.3044 29.32 68.5978 29.32ZM74.5057 6.6H78.0257V29H74.5057V6.6ZM78.55 16.2H85.59V19.4H78.55V16.2ZM91.175 29.32C89.447 29.32 88.1243 28.8293 87.207 27.848C86.2897 26.8667 85.831 25.48 85.831 23.688V11.912C85.831 10.12 86.2897 8.73333 87.207 7.752C88.1243 6.77067 89.447 6.28 91.175 6.28C92.903 6.28 94.2257 6.77067 95.143 7.752C96.0603 8.73333 96.519 10.12 96.519 11.912V23.688C96.519 25.48 96.0603 26.8667 95.143 27.848C94.2257 28.8293 92.903 29.32 91.175 29.32ZM91.175 26.12C92.391 26.12 92.999 25.384 92.999 23.912V11.688C92.999 10.216 92.391 9.48 91.175 9.48C89.959 9.48 89.351 10.216 89.351 11.688V23.912C89.351 25.384 89.959 26.12 91.175 26.12ZM97.2995 6.6H100.819V15.72H104.595V6.6H108.115V29H104.595V18.92H100.819V29H97.2995V6.6Z"/>
</mask>
<path d="M37.544 19.464L33.288 6.6H37.032L39.432 14.824H39.496L41.896 6.6H45.32L41.064 19.464V29H37.544V19.464ZM50.4257 29.32C48.7191 29.32 47.4177 28.84 46.5217 27.88C45.6257 26.8987 45.1777 25.5013 45.1777 23.688V6.6H48.6977V23.944C48.6977 24.712 48.8471 25.2667 49.1458 25.608C49.4658 25.9493 49.9138 26.12 50.4897 26.12C51.0657 26.12 51.5031 25.9493 51.8018 25.608C52.1217 25.2667 52.2817 24.712 52.2817 23.944V6.6H55.6737V23.688C55.6737 25.5013 55.2257 26.8987 54.3298 27.88C53.4338 28.84 52.1324 29.32 50.4257 29.32ZM56.0687 16.2H63.1087V19.4H56.0687V16.2ZM68.5978 29.32C66.8911 29.32 65.5898 28.84 64.6938 27.88C63.7978 26.8987 63.3498 25.5013 63.3498 23.688V11.912C63.3498 10.0987 63.7978 8.712 64.6938 7.752C65.5898 6.77067 66.8911 6.28 68.5978 6.28C70.3044 6.28 71.6058 6.77067 72.5018 7.752C73.3978 8.712 73.8458 10.0987 73.8458 11.912V13.832H70.5178V11.688C70.5178 10.216 69.9098 9.48 68.6938 9.48C67.4778 9.48 66.8698 10.216 66.8698 11.688V23.944C66.8698 25.3947 67.4778 26.12 68.6938 26.12C69.9098 26.12 70.5178 25.3947 70.5178 23.944V19.56H68.7578V16.36H73.8458V23.688C73.8458 25.5013 73.3978 26.8987 72.5018 27.88C71.6058 28.84 70.3044 29.32 68.5978 29.32ZM74.5057 6.6H78.0257V29H74.5057V6.6ZM78.55 16.2H85.59V19.4H78.55V16.2ZM91.175 29.32C89.447 29.32 88.1243 28.8293 87.207 27.848C86.2897 26.8667 85.831 25.48 85.831 23.688V11.912C85.831 10.12 86.2897 8.73333 87.207 7.752C88.1243 6.77067 89.447 6.28 91.175 6.28C92.903 6.28 94.2257 6.77067 95.143 7.752C96.0603 8.73333 96.519 10.12 96.519 11.912V23.688C96.519 25.48 96.0603 26.8667 95.143 27.848C94.2257 28.8293 92.903 29.32 91.175 29.32ZM91.175 26.12C92.391 26.12 92.999 25.384 92.999 23.912V11.688C92.999 10.216 92.391 9.48 91.175 9.48C89.959 9.48 89.351 10.216 89.351 11.688V23.912C89.351 25.384 89.959 26.12 91.175 26.12ZM97.2995 6.6H100.819V15.72H104.595V6.6H108.115V29H104.595V18.92H100.819V29H97.2995V6.6Z" fill="#FF8C2A"/>
<path d="M37.544 19.464H38.544V19.3029L38.4934 19.1499L37.544 19.464ZM33.288 6.6V5.6H31.9038L32.3386 6.9141L33.288 6.6ZM37.032 6.6L37.992 6.31986L37.7819 5.6H37.032V6.6ZM39.432 14.824L38.472 15.1041L38.6821 15.824H39.432V14.824ZM39.496 14.824V15.824H40.2459L40.456 15.1041L39.496 14.824ZM41.896 6.6V5.6H41.1461L40.936 6.31986L41.896 6.6ZM45.32 6.6L46.2694 6.9141L46.7042 5.6H45.32V6.6ZM41.064 19.464L40.1146 19.1499L40.064 19.3029V19.464H41.064ZM41.064 29V30H42.064V29H41.064ZM37.544 29H36.544V30H37.544V29ZM38.4934 19.1499L34.2374 6.2859L32.3386 6.9141L36.5946 19.7781L38.4934 19.1499ZM33.288 7.6H37.032V5.6H33.288V7.6ZM36.072 6.88014L38.472 15.1041L40.392 14.5439L37.992 6.31986L36.072 6.88014ZM39.432 15.824H39.496V13.824H39.432V15.824ZM40.456 15.1041L42.856 6.88014L40.936 6.31986L38.536 14.5439L40.456 15.1041ZM41.896 7.6H45.32V5.6H41.896V7.6ZM44.3706 6.2859L40.1146 19.1499L42.0134 19.7781L46.2694 6.9141L44.3706 6.2859ZM40.064 19.464V29H42.064V19.464H40.064ZM41.064 28H37.544V30H41.064V28ZM38.544 29V19.464H36.544V29H38.544ZM46.5217 27.88L45.7832 28.5543L45.7907 28.5623L46.5217 27.88ZM45.1777 6.6V5.6H44.1777V6.6H45.1777ZM48.6977 6.6H49.6977V5.6H48.6977V6.6ZM49.1458 25.608L48.3932 26.2665L48.4045 26.2794L48.4162 26.2919L49.1458 25.608ZM51.8018 25.608L51.0722 24.9241L51.0605 24.9366L51.0492 24.9495L51.8018 25.608ZM52.2817 6.6V5.6H51.2817V6.6H52.2817ZM55.6737 6.6H56.6737V5.6H55.6737V6.6ZM54.3298 27.88L55.0608 28.5624L55.0682 28.5543L54.3298 27.88ZM50.4257 28.32C48.9087 28.32 47.9073 27.8989 47.2528 27.1977L45.7907 28.5623C46.9282 29.7811 48.5294 30.32 50.4257 30.32V28.32ZM47.2602 27.2057C46.5856 26.4668 46.1777 25.3438 46.1777 23.688H44.1777C44.1777 25.6589 44.6659 27.3305 45.7833 28.5543L47.2602 27.2057ZM46.1777 23.688V6.6H44.1777V23.688H46.1777ZM45.1777 7.6H48.6977V5.6H45.1777V7.6ZM47.6977 6.6V23.944H49.6977V6.6H47.6977ZM47.6977 23.944C47.6977 24.7995 47.8563 25.6529 48.3932 26.2665L49.8983 24.9495C49.8379 24.8804 49.6977 24.6245 49.6977 23.944H47.6977ZM48.4162 26.2919C48.9675 26.88 49.7059 27.12 50.4897 27.12V25.12C50.1216 25.12 49.964 25.0187 49.8753 24.9241L48.4162 26.2919ZM50.4897 27.12C51.2705 27.12 52.0169 26.8807 52.5543 26.2665L51.0492 24.9495C50.9893 25.018 50.861 25.12 50.4897 25.12V27.12ZM52.5313 26.2919C53.1074 25.6774 53.2817 24.8124 53.2817 23.944H51.2817C51.2817 24.6116 51.1361 24.8559 51.0722 24.9241L52.5313 26.2919ZM53.2817 23.944V6.6H51.2817V23.944H53.2817ZM52.2817 7.6H55.6737V5.6H52.2817V7.6ZM54.6737 6.6V23.688H56.6737V6.6H54.6737ZM54.6737 23.688C54.6737 25.3438 54.2659 26.4668 53.5913 27.2057L55.0682 28.5543C56.1856 27.3305 56.6737 25.6589 56.6737 23.688H54.6737ZM53.5987 27.1977C52.9442 27.8989 51.9428 28.32 50.4257 28.32V30.32C52.3221 30.32 53.9233 29.7811 55.0608 28.5623L53.5987 27.1977ZM56.0687 16.2V15.2H55.0687V16.2H56.0687ZM63.1087 16.2H64.1087V15.2H63.1087V16.2ZM63.1087 19.4V20.4H64.1087V19.4H63.1087ZM56.0687 19.4H55.0687V20.4H56.0687V19.4ZM56.0687 17.2H63.1087V15.2H56.0687V17.2ZM62.1087 16.2V19.4H64.1087V16.2H62.1087ZM63.1087 18.4H56.0687V20.4H63.1087V18.4ZM57.0687 19.4V16.2H55.0687V19.4H57.0687ZM64.6938 27.88L63.9552 28.5543L63.9627 28.5623L64.6938 27.88ZM64.6938 7.752L65.4249 8.43436L65.4322 8.42627L64.6938 7.752ZM72.5018 7.752L71.7632 8.42631L71.7707 8.43432L72.5018 7.752ZM73.8458 13.832V14.832H74.8458V13.832H73.8458ZM70.5178 13.832H69.5178V14.832H70.5178V13.832ZM70.5178 19.56H71.5178V18.56H70.5178V19.56ZM68.7578 19.56H67.7578V20.56H68.7578V19.56ZM68.7578 16.36V15.36H67.7578V16.36H68.7578ZM73.8458 16.36H74.8458V15.36H73.8458V16.36ZM72.5018 27.88L73.2329 28.5624L73.2402 28.5543L72.5018 27.88ZM68.5978 28.32C67.0807 28.32 66.0793 27.8989 65.4248 27.1977L63.9627 28.5623C65.1002 29.7811 66.7014 30.32 68.5978 30.32V28.32ZM65.4322 27.2057C64.7576 26.4668 64.3498 25.3438 64.3498 23.688H62.3498C62.3498 25.6589 62.8379 27.3305 63.9553 28.5543L65.4322 27.2057ZM64.3498 23.688V11.912H62.3498V23.688H64.3498ZM64.3498 11.912C64.3498 10.2546 64.7583 9.14848 65.4248 8.43432L63.9627 7.06968C62.8372 8.27552 62.3498 9.94277 62.3498 11.912H64.3498ZM65.4322 8.42627C66.0883 7.70777 67.0872 7.28 68.5978 7.28V5.28C66.6949 5.28 65.0912 5.83356 63.9553 7.07773L65.4322 8.42627ZM68.5978 7.28C70.1083 7.28 71.1072 7.70777 71.7633 8.42627L73.2402 7.07773C72.1043 5.83356 70.5006 5.28 68.5978 5.28V7.28ZM71.7707 8.43432C72.4372 9.14848 72.8458 10.2546 72.8458 11.912H74.8458C74.8458 9.94277 74.3583 8.27552 73.2328 7.06968L71.7707 8.43432ZM72.8458 11.912V13.832H74.8458V11.912H72.8458ZM73.8458 12.832H70.5178V14.832H73.8458V12.832ZM71.5178 13.832V11.688H69.5178V13.832H71.5178ZM71.5178 11.688C71.5178 10.8394 71.3464 10.017 70.8327 9.39512C70.2888 8.73669 69.5116 8.48 68.6938 8.48V10.48C69.0919 10.48 69.2267 10.5913 69.2908 10.6689C69.3851 10.783 69.5178 11.0646 69.5178 11.688H71.5178ZM68.6938 8.48C67.8759 8.48 67.0987 8.73669 66.5548 9.39512C66.0411 10.017 65.8698 10.8394 65.8698 11.688H67.8698C67.8698 11.0646 68.0024 10.783 68.0967 10.6689C68.1608 10.5913 68.2956 10.48 68.6938 10.48V8.48ZM65.8698 11.688V23.944H67.8698V11.688H65.8698ZM65.8698 23.944C65.8698 24.7847 66.0422 25.6015 66.5594 26.2184C67.1048 26.8691 67.8807 27.12 68.6938 27.12V25.12C68.2908 25.12 68.1547 25.0082 68.0921 24.9336C68.0013 24.8252 67.8698 24.554 67.8698 23.944H65.8698ZM68.6938 27.12C69.5068 27.12 70.2827 26.8691 70.8281 26.2184C71.3453 25.6015 71.5178 24.7847 71.5178 23.944H69.5178C69.5178 24.554 69.3862 24.8252 69.2954 24.9336C69.2328 25.0082 69.0967 25.12 68.6938 25.12V27.12ZM71.5178 23.944V19.56H69.5178V23.944H71.5178ZM70.5178 18.56H68.7578V20.56H70.5178V18.56ZM69.7578 19.56V16.36H67.7578V19.56H69.7578ZM68.7578 17.36H73.8458V15.36H68.7578V17.36ZM72.8458 16.36V23.688H74.8458V16.36H72.8458ZM72.8458 23.688C72.8458 25.3438 72.4379 26.4668 71.7633 27.2057L73.2402 28.5543C74.3576 27.3305 74.8458 25.6589 74.8458 23.688H72.8458ZM71.7707 27.1977C71.1162 27.8989 70.1148 28.32 68.5978 28.32V30.32C70.4941 30.32 72.0953 29.7811 73.2328 28.5623L71.7707 27.1977ZM74.5057 6.6V5.6H73.5057V6.6H74.5057ZM78.0257 6.6H79.0257V5.6H78.0257V6.6ZM78.0257 29V30H79.0257V29H78.0257ZM74.5057 29H73.5057V30H74.5057V29ZM74.5057 7.6H78.0257V5.6H74.5057V7.6ZM77.0257 6.6V29H79.0257V6.6H77.0257ZM78.0257 28H74.5057V30H78.0257V28ZM75.5057 29V6.6H73.5057V29H75.5057ZM78.55 16.2V15.2H77.55V16.2H78.55ZM85.59 16.2H86.59V15.2H85.59V16.2ZM85.59 19.4V20.4H86.59V19.4H85.59ZM78.55 19.4H77.55V20.4H78.55V19.4ZM78.55 17.2H85.59V15.2H78.55V17.2ZM84.59 16.2V19.4H86.59V16.2H84.59ZM85.59 18.4H78.55V20.4H85.59V18.4ZM79.55 19.4V16.2H77.55V19.4H79.55ZM87.207 27.848L87.9375 27.1651L87.9375 27.1651L87.207 27.848ZM87.207 7.752L87.9375 8.43488L87.9375 8.43488L87.207 7.752ZM95.143 7.752L94.4125 8.43488L94.4125 8.43488L95.143 7.752ZM95.143 27.848L94.4125 27.1651L94.4125 27.1651L95.143 27.848ZM91.175 28.32C89.6401 28.32 88.6152 27.8901 87.9375 27.1651L86.4765 28.5309C87.6334 29.7685 89.2539 30.32 91.175 30.32V28.32ZM87.9375 27.1651C87.2446 26.4238 86.831 25.313 86.831 23.688H84.831C84.831 25.647 85.3347 27.3095 86.4765 28.5309L87.9375 27.1651ZM86.831 23.688V11.912H84.831V23.688H86.831ZM86.831 11.912C86.831 10.287 87.2446 9.17617 87.9375 8.43488L86.4765 7.06912C85.3347 8.2905 84.831 9.95303 84.831 11.912H86.831ZM87.9375 8.43488C88.6152 7.70988 89.6401 7.28 91.175 7.28V5.28C89.2539 5.28 87.6334 5.83145 86.4765 7.06912L87.9375 8.43488ZM91.175 7.28C92.7099 7.28 93.7348 7.70988 94.4125 8.43488L95.8735 7.06912C94.7166 5.83145 93.0961 5.28 91.175 5.28V7.28ZM94.4125 8.43488C95.1054 9.17617 95.519 10.287 95.519 11.912H97.519C97.519 9.95303 97.0153 8.2905 95.8735 7.06911L94.4125 8.43488ZM95.519 11.912V23.688H97.519V11.912H95.519ZM95.519 23.688C95.519 25.313 95.1054 26.4238 94.4125 27.1651L95.8735 28.5309C97.0153 27.3095 97.519 25.647 97.519 23.688H95.519ZM94.4125 27.1651C93.7348 27.8901 92.7099 28.32 91.175 28.32V30.32C93.0961 30.32 94.7166 29.7685 95.8735 28.5309L94.4125 27.1651ZM91.175 27.12C91.9928 27.12 92.77 26.8633 93.314 26.2049C93.8277 25.583 93.999 24.7606 93.999 23.912H91.999C91.999 24.5354 91.8663 24.817 91.772 24.9311C91.708 25.0087 91.5732 25.12 91.175 25.12V27.12ZM93.999 23.912V11.688H91.999V23.912H93.999ZM93.999 11.688C93.999 10.8394 93.8277 10.017 93.314 9.39512C92.77 8.73669 91.9928 8.48 91.175 8.48V10.48C91.5732 10.48 91.708 10.5913 91.772 10.6689C91.8663 10.783 91.999 11.0646 91.999 11.688H93.999ZM91.175 8.48C90.3572 8.48 89.58 8.73669 89.036 9.39512C88.5223 10.017 88.351 10.8394 88.351 11.688H90.351C90.351 11.0646 90.4837 10.783 90.578 10.6689C90.642 10.5913 90.7768 10.48 91.175 10.48V8.48ZM88.351 11.688V23.912H90.351V11.688H88.351ZM88.351 23.912C88.351 24.7606 88.5223 25.583 89.036 26.2049C89.58 26.8633 90.3572 27.12 91.175 27.12V25.12C90.7768 25.12 90.642 25.0087 90.578 24.9311C90.4837 24.817 90.351 24.5354 90.351 23.912H88.351ZM97.2995 6.6V5.6H96.2995V6.6H97.2995ZM100.819 6.6H101.819V5.6H100.819V6.6ZM100.819 15.72H99.8195V16.72H100.819V15.72ZM104.595 15.72V16.72H105.595V15.72H104.595ZM104.595 6.6V5.6H103.595V6.6H104.595ZM108.115 6.6H109.115V5.6H108.115V6.6ZM108.115 29V30H109.115V29H108.115ZM104.595 29H103.595V30H104.595V29ZM104.595 18.92H105.595V17.92H104.595V18.92ZM100.819 18.92V17.92H99.8195V18.92H100.819ZM100.819 29V30H101.819V29H100.819ZM97.2995 29H96.2995V30H97.2995V29ZM97.2995 7.6H100.819V5.6H97.2995V7.6ZM99.8195 6.6V15.72H101.819V6.6H99.8195ZM100.819 16.72H104.595V14.72H100.819V16.72ZM105.595 15.72V6.6H103.595V15.72H105.595ZM104.595 7.6H108.115V5.6H104.595V7.6ZM107.115 6.6V29H109.115V6.6H107.115ZM108.115 28H104.595V30H108.115V28ZM105.595 29V18.92H103.595V29H105.595ZM104.595 17.92H100.819V19.92H104.595V17.92ZM99.8195 18.92V29H101.819V18.92H99.8195ZM100.819 28H97.2995V30H100.819V28ZM98.2995 29V6.6H96.2995V29H98.2995Z" fill="#2B64A9" mask="url(#path-1-outside-1_23_4)"/>
</g>
<g filter="url(#filter1_d_23_4)">
<path d="M56.574 32.2H58.842C59.6073 32.2 60.1813 32.4053 60.564 32.816C60.9467 33.2267 61.138 33.8287 61.138 34.622V35.588C61.138 36.3813 60.9467 36.9833 60.564 37.394C60.1813 37.8047 59.6073 38.01 58.842 38.01H58.114V42H56.574V32.2ZM58.842 36.61C59.094 36.61 59.2807 36.54 59.402 36.4C59.5327 36.26 59.598 36.022 59.598 35.686V34.524C59.598 34.188 59.5327 33.95 59.402 33.81C59.2807 33.67 59.094 33.6 58.842 33.6H58.114V36.61H58.842ZM61.9744 32.2H64.2564C65.0497 32.2 65.6284 32.3867 65.9924 32.76C66.3564 33.124 66.5384 33.6887 66.5384 34.454V35.056C66.5384 36.0733 66.2024 36.7173 65.5304 36.988V37.016C65.9037 37.128 66.1651 37.3567 66.3144 37.702C66.4731 38.0473 66.5524 38.5093 66.5524 39.088V40.81C66.5524 41.09 66.5617 41.3187 66.5804 41.496C66.5991 41.664 66.6457 41.832 66.7204 42H65.1524C65.0964 41.8413 65.0591 41.692 65.0404 41.552C65.0217 41.412 65.0124 41.16 65.0124 40.796V39.004C65.0124 38.556 64.9377 38.2433 64.7884 38.066C64.6484 37.8887 64.4011 37.8 64.0464 37.8H63.5144V42H61.9744V32.2ZM64.0744 36.4C64.3824 36.4 64.6111 36.3207 64.7604 36.162C64.9191 36.0033 64.9984 35.7373 64.9984 35.364V34.608C64.9984 34.2533 64.9331 33.9967 64.8024 33.838C64.6811 33.6793 64.4851 33.6 64.2144 33.6H63.5144V36.4H64.0744ZM69.8469 42.14C69.0909 42.14 68.5122 41.9253 68.1109 41.496C67.7095 41.0667 67.5089 40.46 67.5089 39.676V34.524C67.5089 33.74 67.7095 33.1333 68.1109 32.704C68.5122 32.2747 69.0909 32.06 69.8469 32.06C70.6029 32.06 71.1815 32.2747 71.5829 32.704C71.9842 33.1333 72.1849 33.74 72.1849 34.524V39.676C72.1849 40.46 71.9842 41.0667 71.5829 41.496C71.1815 41.9253 70.6029 42.14 69.8469 42.14ZM69.8469 40.74C70.3789 40.74 70.6449 40.418 70.6449 39.774V34.426C70.6449 33.782 70.3789 33.46 69.8469 33.46C69.3149 33.46 69.0489 33.782 69.0489 34.426V39.774C69.0489 40.418 69.3149 40.74 69.8469 40.74ZM73.5903 42.056C73.3103 42.056 73.0723 42.0373 72.8763 42V40.6C73.0257 40.6373 73.1937 40.656 73.3803 40.656C73.6883 40.656 73.917 40.5813 74.0663 40.432C74.2157 40.2733 74.2903 40.0353 74.2903 39.718V32.2H75.8303V39.676C75.8303 40.4787 75.6437 41.076 75.2703 41.468C74.9063 41.86 74.3463 42.056 73.5903 42.056ZM76.9314 32.2H81.1314V33.6H78.4714V36.19H80.5854V37.59H78.4714V40.6H81.1314V42H76.9314V32.2ZM84.1874 42.14C83.45 42.14 82.8854 41.93 82.4934 41.51C82.1107 41.09 81.9194 40.4973 81.9194 39.732V34.468C81.9194 33.7027 82.1107 33.11 82.4934 32.69C82.8854 32.27 83.45 32.06 84.1874 32.06C84.9247 32.06 85.4847 32.27 85.8674 32.69C86.2594 33.11 86.4554 33.7027 86.4554 34.468V35.504H84.9994V34.37C84.9994 33.7633 84.7427 33.46 84.2294 33.46C83.716 33.46 83.4594 33.7633 83.4594 34.37V39.844C83.4594 40.4413 83.716 40.74 84.2294 40.74C84.7427 40.74 84.9994 40.4413 84.9994 39.844V38.346H86.4554V39.732C86.4554 40.4973 86.2594 41.09 85.8674 41.51C85.4847 41.93 84.9247 42.14 84.1874 42.14ZM88.5807 33.6H86.9707V32.2H91.7307V33.6H90.1207V42H88.5807V33.6Z" fill="#2B64A9"/>
</g>
<g filter="url(#filter2_di_23_4)">
<path d="M25.5042 9.25C25.5833 8.5 25.5833 7.825 25.5833 7H9.75C9.75 7.825 9.75 8.5 9.82917 9.25H5V10C5 16.675 13.9458 21.4 16.0833 22.45V25C16.0833 26.275 15.0542 27.25 13.7083 27.25H12.125V30.25H23.2083V27.25H21.625C20.2792 27.25 19.25 26.275 19.25 25V22.45C21.3875 21.4 30.3333 16.675 30.3333 10V9.25H25.5042ZM6.6625 10.75H9.9875C10.3042 14.125 11.175 16.525 12.125 18.25C9.59167 16.375 6.97917 13.75 6.6625 10.75ZM23.2875 18.25C24.2375 16.525 25.1083 14.125 25.425 10.75H28.75C28.3542 13.75 25.7417 16.375 23.2875 18.25Z" fill="#FF8C2A"/>
<path d="M9.25 7.01282C9.25 7.63124 9.25 8.18172 9.28568 8.75H5H4.5V9.25V10C4.5 13.5634 6.88033 16.5408 9.41463 18.7139C11.7695 20.7332 14.349 22.1373 15.5833 22.7596V25C15.5833 25.9737 14.8038 26.75 13.7083 26.75H12.125H11.625V27.25V30.25V30.75H12.125H23.2083H23.7083V30.25V27.25V26.75H23.2083H21.625C20.5295 26.75 19.75 25.9737 19.75 25V22.7596C20.9843 22.1373 23.5639 20.7332 25.9187 18.7139C28.453 16.5408 30.8333 13.5634 30.8333 10V9.25V8.75H30.3333H26.0477C26.0833 8.18171 26.0833 7.6312 26.0833 7.01276V7V6.5H25.5833H9.75H9.25V7V7.01282ZM9.53608 11.25C9.76985 13.356 10.2189 15.0832 10.7662 16.5046C10.1092 15.9163 9.4893 15.2821 8.9534 14.6101C8.11054 13.5533 7.49207 12.4241 7.24673 11.25H9.53608ZM25.8764 11.25H28.1507C27.8756 12.4251 27.2418 13.5543 26.3997 14.6101C25.8814 15.26 25.2903 15.8745 24.6687 16.4462C25.2058 15.036 25.6458 13.3273 25.8764 11.25Z" stroke="#2B64A9"/>
</g>
<defs>
<filter id="filter0_di_23_4" x="27.9038" y="5.28" width="85.2117" height="33.04" filterUnits="userSpaceOnUse" color-interpolation-filters="sRGB">
<feFlood flood-opacity="0" result="BackgroundImageFix"/>
<feColorMatrix in="SourceAlpha" type="matrix" values="0 0 0 0 0 0 0 0 0 0 0 0 0 0 0 0 0 0 127 0" result="hardAlpha"/>
<feOffset dy="4"/>
<feGaussianBlur stdDeviation="2"/>
<feComposite in2="hardAlpha" operator="out"/>
<feColorMatrix type="matrix" values="0 0 0 0 0 0 0 0 0 0 0 0 0 0 0 0 0 0 0.25 0"/>
<feBlend mode="normal" in2="BackgroundImageFix" result="effect1_dropShadow_23_4"/>
<feBlend mode="normal" in="SourceGraphic" in2="effect1_dropShadow_23_4" result="shape"/>
<feColorMatrix in="SourceAlpha" type="matrix" values="0 0 0 0 0 0 0 0 0 0 0 0 0 0 0 0 0 0 127 0" result="hardAlpha"/>
<feOffset dy="4"/>
<feGaussianBlur stdDeviation="2"/>
<feComposite in2="hardAlpha" operator="arithmetic" k2="-1" k3="1"/>
<feColorMatrix type="matrix" values="0 0 0 0 0 0 0 0 0 0 0 0 0 0 0 0 0 0 0.25 0"/>
<feBlend mode="normal" in2="shape" result="effect2_innerShadow_23_4"/>
</filter>
<filter id="filter1_d_23_4" x="52.574" y="32.06" width="43.1567" height="18.08" filterUnits="userSpaceOnUse" color-interpolation-filters="sRGB">
<feFlood flood-opacity="0" result="BackgroundImageFix"/>
<feColorMatrix in="SourceAlpha" type="matrix" values="0 0 0 0 0 0 0 0 0 0 0 0 0 0 0 0 0 0 127 0" result="hardAlpha"/>
<feOffset dy="4"/>
<feGaussianBlur stdDeviation="2"/>
<feComposite in2="hardAlpha" operator="out"/>
<feColorMatrix type="matrix" values="0 0 0 0 0 0 0 0 0 0 0 0 0 0 0 0 0 0 0.25 0"/>
<feBlend mode="normal" in2="BackgroundImageFix" result="effect1_dropShadow_23_4"/>
<feBlend mode="normal" in="SourceGraphic" in2="effect1_dropShadow_23_4" result="shape"/>
</filter>
<filter id="filter2_di_23_4" x="0" y="6" width="35.3333" height="33.25" filterUnits="userSpaceOnUse" color-interpolation-filters="sRGB">
<feFlood flood-opacity="0" result="BackgroundImageFix"/>
<feColorMatrix in="SourceAlpha" type="matrix" values="0 0 0 0 0 0 0 0 0 0 0 0 0 0 0 0 0 0 127 0" result="hardAlpha"/>
<feOffset dy="4"/>
<feGaussianBlur stdDeviation="2"/>
<feComposite in2="hardAlpha" operator="out"/>
<feColorMatrix type="matrix" values="0 0 0 0 0 0 0 0 0 0 0 0 0 0 0 0 0 0 0.25 0"/>
<feBlend mode="normal" in2="BackgroundImageFix" result="effect1_dropShadow_23_4"/>
<feBlend mode="normal" in="SourceGraphic" in2="effect1_dropShadow_23_4" result="shape"/>
<feColorMatrix in="SourceAlpha" type="matrix" values="0 0 0 0 0 0 0 0 0 0 0 0 0 0 0 0 0 0 127 0" result="hardAlpha"/>
<feOffset dy="4"/>
<feGaussianBlur stdDeviation="2"/>
<feComposite in2="hardAlpha" operator="arithmetic" k2="-1" k3="1"/>
<feColorMatrix type="matrix" values="0 0 0 0 0 0 0 0 0 0 0 0 0 0 0 0 0 0 0.25 0"/>
<feBlend mode="normal" in2="shape" result="effect2_innerShadow_23_4"/>
</filter>
</defs>
</svg>
